<svg
  viewBox="0 0 480 480"
  xmlns="http://www.w3.org/2000/svg"
>
 <!-- Created with SVG-edit - https://github.com/SVG-Edit/svgedit-->
 <defs>
  <symbol height="54" id="svg_2" viewBox="0 0 300 54" width="300" xmlns="http://www.w3.org/2000/svg">
   <g clip-path="url(#svg_1)">
    <path d="m52.75,20.29c0.4,-15.42 -4.73,-19.04 -18.77,-18.81c-3.16,-0.05 -10.12,-0.05 -13.4,0c-20.83,-0.72 -19.02,9.61 -19.11,26.55c-0.17,17.41 0.21,24.74 19.11,24.31c3,0.04 9.98,0.05 13.1,0c7.47,-0.23 11.36,-0.06 15.47,-3.84c2.96,-3.02 3.58,-7.57 3.6,-15.07c0.04,-3.09 0.04,-10.17 0,-13.09l0,-0.04l0,-0.01z" fill="white"/>
    <path d="m27.15,53.81c-2.5,0 -5.01,-0.01 -6.56,-0.03c-8.21,0.18 -13.24,-1.08 -16.32,-4.1c-4.21,-4.12 -4.36,-10.92 -4.25,-21.66c0.01,-1.32 0,-2.61 0,-3.85c-0.03,-8.85 -0.06,-15.84 4.34,-20.07c3.16,-3.04 8.32,-4.34 16.24,-4.06c3.22,-0.05 10.13,-0.05 13.38,0c8.19,-0.13 13,1.12 16.05,4.17c3.09,3.1 4.38,8.06 4.17,16.1l0,0.02c0.04,2.96 0.04,10.08 0,13.12c-0.02,7.78 -0.67,12.65 -4.01,16.05l-0.06,0.05c-4.2,3.89 -8.22,4 -14.86,4.18c-0.5,0.02 -1.02,0.03 -1.55,0.05c-1.53,0.02 -4.04,0.03 -6.57,0.03l0,0zm-6.57,-2.91l0.02,0c3.09,0.04 10.04,0.04 13.05,0c0.51,-0.02 1.03,-0.04 1.53,-0.05c6.35,-0.18 9.55,-0.26 12.95,-3.39c2.64,-2.7 3.15,-7.03 3.17,-14.04c0.04,-3.03 0.04,-10.11 0,-13.07l0,-0.07l0,-0.02c0.19,-7.2 -0.84,-11.53 -3.33,-14.02c-2.45,-2.45 -6.62,-3.44 -13.97,-3.32l-0.02,0l-0.03,0c-3.23,-0.05 -10.15,-0.05 -13.35,0l-0.03,0l-0.04,0c-7.09,-0.25 -11.6,0.78 -14.16,3.25c-3.5,3.37 -3.48,9.51 -3.45,17.99c0.01,1.25 0.01,2.55 0,3.88c-0.1,10 0.01,16.28 3.39,19.6c2.48,2.42 6.87,3.43 14.24,3.26l0.03,0l0,0z" fill="#DFDFDF"/>
    <path d="m11.91,34.09c-0.01,-0.02 -0.01,-0.04 -0.01,-0.06c-0.09,-0.63 -0.01,-1.03 0.19,-1.27c0.21,-0.24 0.57,-0.32 1.13,-0.32c0.57,0 0.93,0.08 1.16,0.26c0.23,0.18 0.3,0.47 0.38,0.94c0,0.01 0,0.02 0,0.04c0.24,1.61 0.98,3.11 2.12,4.31c0.85,0.91 1.9,1.68 3.04,2.15l0.22,0.09c0.07,0.03 0.14,0.05 0.22,0.08l0.44,0.15c0.3,0.1 0.61,0.16 0.91,0.24c0.32,0.04 0.63,0.1 0.94,0.13l0.47,0.03l0.24,0.02l0.24,-0.01c1.26,0 2.53,-0.25 3.69,-0.73c1.16,-0.48 2.19,-1.21 3.02,-2.12c0.03,-0.04 0.06,-0.07 0.09,-0.1c0.08,-0.09 0.16,-0.15 0.23,-0.22c0.06,-0.06 0.12,-0.12 0.19,-0.16c0.12,-0.09 0.25,-0.14 0.4,-0.15c0.28,-0.01 0.62,0.12 1.08,0.42c0.46,0.3 0.72,0.55 0.77,0.86c0.02,0.16 0,0.32 -0.08,0.51c-0.04,0.09 -0.09,0.19 -0.16,0.3c-0.07,0.1 -0.15,0.21 -0.25,0.32c-0.04,0.04 -0.08,0.09 -0.13,0.14c-1.12,1.23 -2.51,2.21 -4.04,2.84c-1.52,0.64 -3.16,0.96 -4.8,0.96l-0.31,0.01l-0.31,-0.02l-0.62,-0.04c-0.4,-0.04 -0.81,-0.12 -1.22,-0.18c-0.4,-0.1 -0.81,-0.18 -1.2,-0.31l-0.58,-0.19c-0.1,-0.04 -0.2,-0.07 -0.3,-0.11l-0.28,-0.12c-0.77,-0.32 -1.5,-0.73 -2.17,-1.21c-0.67,-0.47 -1.29,-1.01 -1.85,-1.61c-0.75,-0.8 -1.39,-1.71 -1.88,-2.7c-0.49,-1 -0.82,-2.07 -0.98,-3.16l0,-0.01z" fill="#00B5D6"/>
    <path d="m33.77,13.09c0.02,0 0.03,0 0.05,0c1.11,0 1.4,0.31 1.4,1.43c0,1.12 -0.29,1.42 -1.4,1.43c-0.02,0 -0.03,0 -0.05,0l-20.47,0c-0.05,0 -0.1,0 -0.15,0c-1.05,-0.02 -1.33,-0.33 -1.33,-1.43c0,-1.1 0.28,-1.41 1.33,-1.43c0.05,0 0.1,0 0.15,0l15.38,0l5.09,0l0,0z" fill="#00B5D6"/>
    <path d="m29.43,23.09c0.02,0 0.03,0 0.04,0c1.11,0.01 1.41,0.31 1.41,1.43c0,1.13 -0.3,1.43 -1.41,1.44c-0.01,0 -0.02,0 -0.04,0l-16.16,0c-0.04,0 -0.08,0 -0.12,0c-1.05,-0.02 -1.33,-0.34 -1.33,-1.44c0,-1.09 0.28,-1.41 1.33,-1.43c0.04,0 0.08,0 0.12,0l12.14,0l4.02,0z" fill="#00B5D6"/>
    <path clip-rule="evenodd" d="m44.82,12.71c-0.29,-0.37 -0.68,-0.68 -1.15,-0.88c-0.32,-0.13 -0.65,-0.21 -1,-0.23c-1.22,-0.07 -2.38,0.64 -2.86,1.76l-5.97,13.86c-0.06,0.13 -0.12,0.28 -0.18,0.47c0,0.01 -0.01,0.03 -0.01,0.04c-0.02,0.06 -0.04,0.13 -0.06,0.2c-0.08,0.31 -0.13,0.63 -0.14,0.96l0,0.25c0,0 0,0.02 0,0.03l-0.13,5.14c-0.01,0.28 0.14,0.48 0.34,0.58c0.02,0.02 0.05,0.03 0.07,0.04c0.26,0.11 0.55,0.05 0.73,-0.14l3.66,-3.63c0.79,-0.8 0.99,-1.28 1.14,-1.63l5.97,-13.85l0,-0.01c0.43,-1.02 0.24,-2.14 -0.4,-2.95l-0.01,-0.01z" fill="#111213" fill-rule="evenodd"/>
    <path d="m292.24,11.49l3.06,0l0,0.68l-1.15,0l0,3.15l-0.75,0l0,-3.15l-1.16,0l0,-0.68zm3.69,0l0.88,0l1.13,2.77l1.12,-2.77l0.88,0l0,3.83l-0.71,0l0,-2.47l-1,2.47l-0.6,0l-0.99,-2.47l0,2.47l-0.7,0l0,-3.83l-0.01,0z" fill="#111213"/>
    <path d="m220.97,42.73c-7.31,0 -12.61,-5.28 -12.61,-12.57c0,-7.28 5.31,-12.56 12.61,-12.56c7.31,0 12.56,5.28 12.56,12.56c0,7.29 -5.28,12.57 -12.56,12.57zm0,-21.23c-4.71,0 -8,3.56 -8,8.66c0,5.1 3.29,8.66 8,8.66c4.71,0 7.95,-3.56 7.95,-8.66c0,-5.1 -3.27,-8.66 -7.95,-8.66z" fill="#111213"/>
    <path d="m284.68,42.73c-5.48,0 -9.2,-2.92 -9.82,-7.64c-0.01,-0.03 -0.01,-0.11 -0.03,-0.21c-0.02,-0.24 0.17,-0.44 0.4,-0.44l3.58,0c0.19,0 0.36,0.14 0.39,0.34c0.01,0.07 0.02,0.14 0.03,0.18c0.49,2.45 2.5,3.86 5.45,3.86c2.7,0 4.65,-1.35 4.65,-3.28c0,-2.89 -2.79,-3.35 -5.76,-3.83c-3.82,-0.62 -8.15,-1.33 -8.15,-7.12c0,-4.19 3.49,-7 8.67,-7c5.19,0 8.69,2.55 9.43,6.56c0.02,0.1 0.05,0.36 0.07,0.6c0.03,0.23 -0.15,0.43 -0.39,0.43l-3.59,0c-0.19,0 -0.35,-0.13 -0.39,-0.31c-0.03,-0.16 -0.07,-0.33 -0.09,-0.39c-0.66,-2.21 -3,-3.09 -5.03,-3.09c-2.56,0 -4.27,1.15 -4.27,3.05c0,2.6 2.65,2.99 5.46,3.39c4,0.58 8.55,1.23 8.55,7.62c0,4.42 -3.6,7.28 -9.16,7.28" fill="#111213"/>
    <path d="m245.5,42.36c-2.46,0 -4.49,-0.74 -5.87,-2.15c-1.44,-1.47 -2.14,-3.59 -2.06,-6.28l0,-10.35l-0.04,0c-1.35,-0.09 -2.69,-0.24 -3.97,-0.48c-0.09,-0.02 -0.17,-0.07 -0.22,-0.14c-0.05,-0.08 -0.07,-0.17 -0.06,-0.26l0.67,-3.39c0.04,-0.16 0.18,-0.27 0.34,-0.27c0.02,0 0.04,0 0.06,0c1.03,0.18 2.1,0.32 3.17,0.39l0.04,0l0,-0.58l0.01,-7.01c0,-0.19 0.15,-0.34 0.34,-0.34l3.83,0c0.19,0 0.34,0.15 0.34,0.34l0,7.55l0.04,0c2.05,-0.17 3.94,-0.56 5.95,-1.21c0.04,-0.01 0.07,-0.02 0.11,-0.02c0.15,0 0.27,0.09 0.32,0.23l1.14,3.27c0.02,0.09 0.02,0.18 -0.02,0.26c-0.04,0.08 -0.11,0.14 -0.2,0.17c-2.44,0.8 -4.77,1.26 -7.31,1.45l-0.03,0l0,10.38c0,2.71 1.53,4.27 4.2,4.27l2.5,0c0.19,0 0.34,0.15 0.34,0.33l0,3.5c0,0.19 -0.15,0.34 -0.34,0.34l-3.28,0l0,0z" fill="#111213"/>
    <path d="m201.23,42.36c-0.19,0 -0.34,-0.15 -0.34,-0.34l0,-13.72c0,-3.77 -2.24,-6.3 -5.57,-6.3c-3.7,0 -6.38,3.01 -6.38,7.16l0,12.86c0,0.19 -0.15,0.34 -0.34,0.34l-4.25,0c-0.19,0 -0.34,-0.15 -0.34,-0.34l0,-23.74c0,-0.18 0.15,-0.33 0.34,-0.33l4.25,0c0.19,0 0.34,0.15 0.34,0.33l0,3.53c1.39,-2.69 4.16,-4.22 7.69,-4.22c5.5,0 9.19,3.94 9.19,9.8l0,14.63c0,0.19 -0.15,0.34 -0.34,0.34l-4.25,0l0,0z" fill="#111213"/>
    <path d="m175.07,42.36c-0.19,0 -0.34,-0.15 -0.34,-0.34l0,-2.55l-0.06,0.09c-1.31,1.85 -4.15,2.96 -7.59,2.96c-7.02,0 -11.56,-4.86 -11.56,-12.38c0,-7.53 4.51,-12.39 11.51,-12.39c3.16,0 6.29,1.61 7.64,3.12l0.06,0.07l0,-12.54c0,-0.19 0.15,-0.34 0.34,-0.34l3.9,0c0.19,0 0.34,0.15 0.34,0.34l0,33.63c0,0.18 -0.15,0.34 -0.34,0.34l-3.9,0l0,-0.01zm-7.42,-20.67c-4.5,0 -7.52,3.41 -7.52,8.48c0,5.08 3.02,8.49 7.52,8.49c4.5,0 7.57,-3.41 7.57,-8.49c0,-5.07 -3.04,-8.48 -7.57,-8.48z" fill="#111213"/>
    <path d="m83.58,42.73c-7.39,0 -15.08,-4.83 -15.08,-15.61c0,-10.79 7.78,-15.62 15.25,-15.62c6.07,0 10.6,3.36 12.43,9.21c0.03,0.12 0.02,0.25 -0.05,0.36c-0.06,0.1 -0.17,0.18 -0.3,0.19l-3.53,0.57c-0.03,0.01 -0.05,0.01 -0.07,0.01c-0.17,0 -0.33,-0.1 -0.4,-0.26c-1.81,-4.11 -4.3,-5.95 -8.08,-5.95c-6.29,0 -10.59,4.51 -10.59,11.49c0,6.98 4.41,11.62 10.54,11.62c4.88,0 8.69,-2.92 8.7,-7.25c0,-0.54 -0.01,-0.21 -0.03,-0.41c-0.87,0.1 -1.66,0.15 -2.42,0.15c-1.61,0 -2.94,-0.23 -4.55,-0.59c-0.23,-0.05 -0.38,-0.28 -0.33,-0.51l0.64,-3.19c0.04,-0.2 0.22,-0.34 0.42,-0.34c0.04,0 0.07,0 0.1,0.01c1.46,0.32 2.94,0.49 4.39,0.49c2.19,0 4.39,-0.37 6.7,-1.12c0.05,-0.01 0.09,-0.02 0.14,-0.02c0.19,0 0.35,0.12 0.41,0.3l0.98,3.09c0.04,0.11 0.03,0.23 -0.03,0.34c-0.06,0.1 -0.16,0.18 -0.28,0.21c-0.53,0.13 -1.08,0.25 -1.57,0.35l-0.4,0.09l0.31,11.58c0,0.12 -0.04,0.23 -0.12,0.31c-0.09,0.09 -0.2,0.13 -0.32,0.13l-3.35,0c-0.24,0 -0.43,-0.19 -0.43,-0.43l0,-3.11c-1.86,2.47 -5.1,3.91 -9.09,3.91" fill="#111213"/>
    <path d="m261.62,42.73c-9.98,-0.27 -12.51,-8.3 -12.1,-13.22c0.73,-8.81 7.12,-11.92 11.79,-11.92c11.04,0 11.49,12.26 11.5,12.38c0,0.17 -0.12,0.33 -0.27,0.38c-5.16,1.82 -9.2,2.35 -12.68,2.35c-1.77,0 -3.53,-0.31 -5.6,-0.7c-0.05,-0.01 -0.1,0.04 -0.09,0.09c0.64,4.02 4.19,6.76 7.56,6.73c3.91,-0.03 5.83,-1.63 6.62,-4.12c0.04,-0.15 0.17,-0.25 0.32,-0.25l4.03,0c0.1,0 0.2,0.05 0.26,0.13c0.07,0.08 0.09,0.18 0.07,0.28c-1.04,4.71 -5.39,8 -11.41,7.87m-1.05,-21.3c-4.13,0.38 -6,4.24 -6.39,6.3c-0.01,0.05 -0.01,0.09 0.01,0.12c0.03,0.04 0.06,0.06 0.11,0.07c5.39,1.41 10.33,0.58 13.72,-0.3c0.04,-0.01 0.08,-0.03 0.1,-0.06c0.02,-0.04 0.02,-0.07 0.02,-0.11c-0.1,-1.56 -2.05,-6.54 -7.57,-6.02z" fill="#111213"/>
    <path d="m140.83,42.75c-7.31,0 -12.61,-5.28 -12.61,-12.56c0,-7.29 5.3,-12.57 12.61,-12.57c7.31,0 12.56,5.28 12.56,12.57c0,7.28 -5.28,12.56 -12.56,12.56zm0,-21.23c-4.71,0 -8,3.57 -8,8.66c0,5.1 3.29,8.64 8,8.64c4.71,0 7.95,-3.54 7.95,-8.64c0,-5.1 -3.27,-8.66 -7.95,-8.66z" fill="#111213"/>
    <path d="m113.45,42.75c-7.3,0 -12.6,-5.28 -12.6,-12.56c0,-7.29 5.3,-12.57 12.6,-12.57c7.31,0 12.57,5.28 12.57,12.57c0,7.28 -5.29,12.56 -12.57,12.56zm0,-21.23c-4.7,0 -7.99,3.57 -7.99,8.66c0,5.1 3.29,8.64 7.99,8.64c4.71,0 7.95,-3.54 7.95,-8.64c0,-5.1 -3.27,-8.66 -7.95,-8.66z" fill="#111213"/>
   </g>
   <defs>
    <clipPath id="svg_1">
     <rect fill="white" height="54" width="300"/>
    </clipPath>
   </defs>
  </symbol>
 </defs>
 <g class="layer">
  <title>Layer 1</title>
  <use href="#svg_2" id="svg_3" transform="matrix(8.82636 0 0 8.82636 1.53478 2.53166)"/>
 </g>
</svg>